<svg width="33" height="32" viewBox="0 0 33 32" fill="none" xmlns="http://www.w3.org/2000/svg">
<rect x="0.5" width="32" height="32" rx="16" fill="#FC613F"/>
<path d="M23.7308 7.69231V21.5385C23.7308 21.7221 23.6578 21.8982 23.528 22.028C23.3982 22.1578 23.2221 22.2308 23.0385 22.2308H11.2692C10.902 22.2308 10.5498 22.3766 10.2902 22.6363C10.0305 22.896 9.88462 23.2482 9.88462 23.6154H21.6538C21.8375 23.6154 22.0135 23.6883 22.1434 23.8182C22.2732 23.948 22.3462 24.1241 22.3462 24.3077C22.3462 24.4913 22.2732 24.6674 22.1434 24.7972C22.0135 24.9271 21.8375 25 21.6538 25H9.19231C9.0087 25 8.83261 24.9271 8.70277 24.7972C8.57294 24.6674 8.5 24.4913 8.5 24.3077V9.76923C8.5 9.03479 8.79176 8.33042 9.31109 7.81109C9.83042 7.29176 10.5348 7 11.2692 7H23.0385C23.2221 7 23.3982 7.07294 23.528 7.20277C23.6578 7.33261 23.7308 7.5087 23.7308 7.69231Z" fill="white"/>
</svg>
