<svg width="33" height="32" viewBox="0 0 33 32" fill="none" xmlns="http://www.w3.org/2000/svg">
<rect x="0.5" width="32" height="32" rx="16" fill="#34AFF5"/>
<path d="M21.6892 7.31572C21.778 7.16779 21.922 7.0612 22.0894 7.01939C22.2568 6.97758 22.4339 7.00398 22.5819 7.09278L22.5871 7.09625L22.5957 7.10145C22.6296 7.12206 22.6626 7.14405 22.6946 7.16738C22.7554 7.20989 22.8378 7.27148 22.9349 7.35128C23.1275 7.51177 23.3791 7.75206 23.6306 8.07823C24.1355 8.7349 24.6326 9.73857 24.6326 11.1204C24.6326 12.5023 24.1355 13.506 23.6306 14.1627C23.3791 14.4888 23.1275 14.7291 22.9349 14.8896C22.8303 14.9767 22.7208 15.0578 22.607 15.1325L22.5957 15.1394L22.5871 15.1447L22.5845 15.1464L22.5827 15.1473C22.5827 15.1473 22.5819 15.1481 22.247 14.5903L22.5819 15.1481C22.4345 15.2317 22.2604 15.2546 22.0964 15.2118C21.9325 15.169 21.7917 15.064 21.704 14.919C21.6164 14.774 21.5887 14.6006 21.6269 14.4355C21.6651 14.2705 21.7662 14.1268 21.9087 14.0352L21.913 14.0317L21.9477 14.0083C21.9824 13.984 22.0354 13.9449 22.1013 13.8903C22.234 13.7793 22.4162 13.6075 22.5983 13.3698C22.961 12.8988 23.3314 12.1675 23.3314 11.1204C23.3314 10.0734 22.961 9.34213 22.5992 8.8711C22.4527 8.67996 22.2858 8.50542 22.1013 8.35061C22.041 8.30032 21.9781 8.25313 21.913 8.20921L21.9087 8.20574C21.7621 8.11638 21.6567 7.97267 21.6156 7.80595C21.5745 7.63922 21.601 7.46301 21.6892 7.31572ZM14.4398 14.5903C15.36 14.5903 16.2426 14.2248 16.8934 13.574C17.5441 12.9233 17.9097 12.0407 17.9097 11.1204C17.9097 10.2002 17.5441 9.3176 16.8934 8.66687C16.2426 8.01614 15.36 7.65056 14.4398 7.65056C13.5195 7.65056 12.6369 8.01614 11.9862 8.66687C11.3355 9.3176 10.9699 10.2002 10.9699 11.1204C10.9699 12.0407 11.3355 12.9233 11.9862 13.574C12.6369 14.2248 13.5195 14.5903 14.4398 14.5903ZM7.5 21.0964C7.5 23.252 7.5 25 14.4398 25C21.3795 25 21.3795 23.252 21.3795 21.0964C21.3795 18.9407 18.2723 17.1928 14.4398 17.1928C10.6073 17.1928 7.5 18.9407 7.5 21.0964Z" fill="white"/>
<path d="M20.8469 8.82772C20.7736 8.78362 20.6924 8.7544 20.6078 8.74173C20.5232 8.72907 20.4369 8.73321 20.3539 8.75392C20.271 8.77462 20.1929 8.81149 20.1241 8.86241C20.0554 8.91333 19.9974 8.9773 19.9534 9.05066L20.1703 9.93895L20.1764 9.94329C20.2721 10.0152 20.3576 10.0999 20.4305 10.1949C20.6318 10.4608 20.737 10.7871 20.7289 11.1204C20.7372 11.4541 20.632 11.7808 20.4305 12.0469C20.3576 12.1419 20.2721 12.2265 20.1764 12.2985L20.1694 12.3019C20.0252 12.3931 19.9226 12.5374 19.8836 12.7035C19.8447 12.8697 19.8727 13.0445 19.9614 13.1902C20.0502 13.336 20.1926 13.441 20.3581 13.4827C20.5236 13.5244 20.6988 13.4995 20.8461 13.4132H20.8478L20.8495 13.4114L20.8521 13.4106L20.8582 13.4062L20.8755 13.3958C20.9416 13.3536 21.0045 13.3066 21.0638 13.2553C21.1757 13.1625 21.3188 13.0254 21.462 12.8398C21.8382 12.3463 22.0383 11.741 22.0302 11.1204C22.0383 10.4999 21.8382 9.89461 21.462 9.40112C21.3081 9.20152 21.1264 9.02506 20.9224 8.87717C20.907 8.8662 20.8913 8.8555 20.8755 8.84507L20.8582 8.83466L20.8521 8.83032L20.8495 8.82946L20.8478 8.82859C20.8478 8.82859 20.8469 8.82772 20.5121 9.38551L20.8469 8.82772Z" fill="white"/>
</svg>
