<svg width="33" height="32" viewBox="0 0 33 32" fill="none" xmlns="http://www.w3.org/2000/svg">
<rect x="0.5" width="32" height="32" rx="16" fill="#4DB949"/>
<path d="M24.3727 7.4444L24.8611 7.93275C25.534 8.6065 25.4322 9.80088 24.6318 10.6004L14.5611 20.6711L11.2983 21.8647C10.8886 22.0153 10.4897 21.82 10.4086 21.4301C10.3811 21.2887 10.394 21.1424 10.4458 21.008L11.6625 17.717L21.7051 7.67368C22.5054 6.87411 23.6998 6.77065 24.3727 7.4444ZM14.1216 8.44592C14.2303 8.44592 14.338 8.46733 14.4384 8.50893C14.5388 8.55053 14.63 8.61149 14.7069 8.68835C14.7838 8.76521 14.8447 8.85646 14.8863 8.95688C14.9279 9.0573 14.9493 9.16493 14.9493 9.27363C14.9493 9.38232 14.9279 9.48995 14.8863 9.59038C14.8447 9.6908 14.7838 9.78204 14.7069 9.8589C14.63 9.93576 14.5388 9.99673 14.4384 10.0383C14.338 10.0799 14.2303 10.1013 14.1216 10.1013H10.8108C10.3718 10.1013 9.95071 10.2757 9.64027 10.5862C9.32982 10.8966 9.15541 11.3177 9.15541 11.7567V21.6892C9.15541 22.1282 9.32982 22.5493 9.64027 22.8597C9.95071 23.1702 10.3718 23.3446 10.8108 23.3446H20.7433C21.1823 23.3446 21.6034 23.1702 21.9138 22.8597C22.2243 22.5493 22.3987 22.1282 22.3987 21.6892V18.3784C22.3987 18.1588 22.4859 17.9483 22.6411 17.7931C22.7963 17.6379 23.0069 17.5507 23.2264 17.5507C23.4459 17.5507 23.6564 17.6379 23.8116 17.7931C23.9669 17.9483 24.0541 18.1588 24.0541 18.3784V21.6892C24.0541 22.5673 23.7053 23.4094 23.0844 24.0303C22.4635 24.6512 21.6213 25 20.7433 25H10.8108C9.93273 25 9.09061 24.6512 8.46972 24.0303C7.84882 23.4094 7.5 22.5673 7.5 21.6892V11.7567C7.5 10.8787 7.84882 10.0365 8.46972 9.41564C9.09061 8.79474 9.93273 8.44592 10.8108 8.44592H14.1216Z" fill="white"/>
</svg>
