<svg width="33" height="32" viewBox="0 0 33 32" fill="none" xmlns="http://www.w3.org/2000/svg">
<rect x="0.5" width="32" height="32" rx="16" fill="#1C67F6"/>
<path d="M20.4956 22.0033H23.4922C24.3013 22.0033 24.9906 22.6826 24.9906 23.5017L24.9706 23.5216C24.9706 24.3307 24.3013 25 23.4922 25H20.4956V22.0033ZM20.4956 22.0033H22.9928C23.8319 22.0033 24.4911 21.3441 24.4911 20.505C24.4911 19.6659 23.8319 18.9967 22.9928 19.0067H20.4956V22.0033ZM8.50888 13.0133V9.01776C8.50888 7.98291 9.40289 7.01998 10.5067 7.01998C11.6104 7.01998 12.5044 7.98291 12.5044 9.01776V13.0133M7.5 15.99C7.5 18.3743 8.44716 20.661 10.1331 22.3469C11.8191 24.0329 14.1057 24.98 16.49 24.98M25.48 15.99C25.48 13.6057 24.5329 11.3191 22.8469 9.63311C21.161 7.94716 18.8743 7 16.49 7M12.5044 11.0155H8.50888" stroke="white" stroke-linecap="round" stroke-linejoin="round"/>
</svg>
