<svg width="33" height="32" viewBox="0 0 33 32" fill="none" xmlns="http://www.w3.org/2000/svg">
<rect x="0.5" width="32" height="32" rx="16" fill="#775AF4"/>
<path d="M23.8908 8.19937C23.8908 7.53698 23.3539 7 22.6915 7H10.6994C10.037 7 9.5 7.53698 9.5 8.19937C9.5 8.57677 9.67763 8.93216 9.97949 9.15868L14.7257 12.7204C13.1397 13.2433 11.8263 14.3746 11.0741 15.8655C10.3219 17.3564 10.1925 19.085 10.7142 20.6713C10.9724 21.4571 11.3829 22.1843 11.9223 22.8114C12.4618 23.4384 13.1195 23.9529 13.858 24.3255C14.5965 24.6981 15.4012 24.9214 16.226 24.9827C17.0509 25.044 17.8797 24.9421 18.6652 24.6827C19.9248 24.2687 21.0216 23.4676 21.7991 22.3936C22.5766 21.3196 22.9952 20.0275 22.9952 18.7016C22.9952 17.3756 22.5766 16.0835 21.7991 15.0095C21.0216 13.9355 19.9248 13.1344 18.6652 12.7204L23.4114 9.15867C23.7132 8.93215 23.8908 8.57677 23.8908 8.19937ZM19.3397 22.74L16.6954 21.193L14.0511 22.74L14.7527 19.7449L12.4231 17.7302L15.4902 17.4693L16.6954 14.6451L17.9007 17.4693L20.9677 17.7302L18.6382 19.7449L19.3397 22.74Z" fill="white"/>
</svg>
