<svg width="33" height="32" viewBox="0 0 33 32" fill="none" xmlns="http://www.w3.org/2000/svg">
<rect x="0.5" width="32" height="32" rx="16" fill="#F9C159"/>
<path d="M18.7173 7.49949C18.0245 7.17062 17.2671 7 16.5002 7C15.7333 7 14.976 7.17062 14.2832 7.49949L7.59196 10.6366C6.51593 11.1406 6.23492 12.5636 6.74994 13.5467V18.4998C6.74994 18.6987 6.82896 18.8895 6.96962 19.0302C7.11027 19.1708 7.30104 19.2498 7.49996 19.2498C7.69888 19.2498 7.88965 19.1708 8.03031 19.0302C8.17096 18.8895 8.24998 18.6987 8.24998 18.4998V14.6717L14.2832 17.4998C14.976 17.8287 15.7333 17.9993 16.5002 17.9993C17.2671 17.9993 18.0245 17.8287 18.7173 17.4998L25.4085 14.3627C26.8645 13.6807 26.8645 11.3186 25.4085 10.6366L18.7173 7.49949Z" fill="white"/>
<path d="M9.50002 16.9148V20.6249C9.50002 21.6329 10.003 22.5769 10.8851 23.0649C12.3541 23.88 14.7042 25 16.5002 25C18.2963 25 20.6463 23.879 22.1154 23.0659C22.9974 22.5769 23.5004 21.6329 23.5004 20.6259V16.9148L19.3543 18.8588C18.4621 19.2812 17.4873 19.5003 16.5002 19.5003C15.5131 19.5003 14.5383 19.2812 13.6461 18.8588L9.50002 16.9148Z" fill="white"/>
</svg>
